<?xml version="1.0" encoding="UTF-8"?>
<svg id="Layer_1" data-name="Layer 1" xmlns="http://www.w3.org/2000/svg" version="1.1" xmlns:xlink="http://www.w3.org/1999/xlink" viewBox="0 0 1500 1215">
  <defs>
    <style>
      .cls-1 {
        fill: #49083e;
      }

      .cls-1, .cls-2 {
        stroke-width: 0px;
      }

      .cls-2 {
        fill: none;
      }

      .cls-3 {
        clip-path: url(#clippath-1);
      }

      .cls-4 {
        clip-path: url(#clippath);
      }
    </style>
    <clipPath id="clippath">
      <rect class="cls-2" x="-301.8" y="-394.4" width="2035.8" height="2035.8"/>
    </clipPath>
    <clipPath id="clippath-1">
      <rect class="cls-2" x="-301.8" y="-394.4" width="2035.8" height="2035.8"/>
    </clipPath>
  </defs>
  <g class="cls-4">
    <g class="cls-3">
      <path class="cls-1" d="M652.9,17.4s31.4,20.9,43.2,28.9c16.8,11.4,26.8,27,27.8,47.5.7,14.2.7,28.5,0,42.7-.5,10.4,2.2,18.6,9.8,26.1,32.3,32.3,64.8,64.4,96.1,97.6,24.7,26.1,49,52.8,67.4,84.1,15.4,26.2,26.9,54,33,83.7,12.1,57.8-19.2,116-74.4,139.2-36.4,15.3-74.3,23.3-113.6,25.6-42.2,2.5-83.9-.4-124.8-11.5-23.6-6.4-47.2-13.5-67-28.6-39.4-29.9-56.8-69.9-49.5-118.8,6.5-43.5,25.5-82.3,52.3-117.1,31.6-41,68-77.7,104.4-114.4,14.9-15.1,30-30,45.3-44.7,7.5-7.2,7.5-16.2,6.6-25.2-1.4-13.8-8.2-24.5-20-32.2-8.7-5.9-42.5-28.8-42.5-28.8l5.9-54.2Z"/>
      <path class="cls-1" d="M1242.4,1147.2h-58.4c1.6-1.9,2.6-3.1,3.5-4.3,4.5-6.2,6.4-13.2,6.4-20.9,0-80.4,0-160.9,0-241.3,0-18.2-9.3-31.4-24.3-41.8,2.3,0,3.7,0,5.2,0,17.6,0,35.2,0,52.8,0,17.1,0,34.2-.6,51.2.1,16,.7,32.1,1.9,47.7,5.7,20.3,4.9,40.3,14.5,54.7,30,.3.3.6.7,1,1,24.8,27.4,20.4,73.5-7.5,97.1-2.6,2.2-5.3,4.2-8.1,6-17.2,11.1-31.2,19.4-64.7,23.7,24.1,4.3,53.4,27,68.2,47.1,15.5,21.1,25.1,45,34.5,69.2,5,13,11.4,25.6,18.5,37.6,13.2,22.2,32.4,43.6,59.7,42.5,0,2.9,0-2.8,0,0-7.7,0-15.8.6-23.7-.1-31.2-3-51.5-16.8-71.6-40.8-14.3-17.1-23.8-37-31.6-57.9-8-21.5-17-42.6-31.3-60.9-17.3-22.3-45.3-34.1-73.7-33.9-4.8,0-9.5,0-14.4,0-3.3-.2-4.8.8-4.8,4.4,0,37.1-.1,74.2.1,111.3,0,9.3,2.5,18.2,10.4,26.2M1231.9,921.7c0,20.9.1,41.9,0,62.8,0,4.3,1.2,5.8,5.5,5.7,13.3-.2,26.7,0,40-.1,17.4-.2,34-3.4,48.9-13,13.3-8.6,23.1-19.9,27.2-35.5,7.9-29.7-.2-64.7-29.1-79.6-13.1-6.8-28.2-7.2-42.7-7.5-14.7-.3-29.5,0-44.2-.1-4.3,0-5.7,1.2-5.6,5.6.2,20.6,0,41.2,0,61.8"/>
      <path class="cls-1" d="M690.3,978.1c14.9-1.1,28-.8,38.4,10.1,6.2,6.4,9.5,13.8,9.6,22.6.1,24.2.3,48.5,0,72.7-.2,14.6-7.9,25.5-18.8,34.4-11.3,9.3-24.3,15.2-38.3,19.6-29.5,9.2-59.8,12.7-90.3,9.2-47.7-5.6-86.6-27.1-112.4-68.8-10.8-17.5-17.3-36.7-20.3-57.2-2.9-20.1-2.6-40,.5-60,2.5-15.4,7.6-29.9,14.6-43.8,15.5-30.9,39.4-52.6,70.8-66.3,43.6-18.9,94.5-18.9,139.1-3.3,2.4.8,4.8,1.7,7.2,2.7,6.6,2.6,13,5.7,19.3,8.8,3.2,1.6,6.3,3.2,9.5,4.8,2.7,1.3,5.6,3.4,5.6,6.7.3,20.8.3,41.5.3,62.3,0,1.7-.5,3.4-1.9,5.1-1.5-5.1-2.7-10.3-4.6-15.2-8-21.4-21.8-38.5-40.1-51.9-14.6-10.7-31-17-49.1-18.9-15-1.6-29.9-1.7-44.6,2.1-15.1,3.9-28.2,11.5-40.6,20.7-20.3,15.1-33.2,35-40.9,59-6.5,20.3-9.8,41.1-9.3,62.1.7,30.3,6.8,59.5,23,85.8,7.9,12.9,19,22.7,30.8,31.7,12.7,9.7,26.7,16.8,42.5,20.1,15.4,3.2,30.8,2.4,46.2,0,13.3-2.1,25.9-6.1,37.4-13.3,17.5-10.9,26.5-26.6,26.6-47.2.2-23.2.2-46.5,0-69.7,0-7-2.7-13.5-6.7-19.3-1.1-1.6-2-3.2-3.5-5.6"/>
      <path class="cls-1" d="M1038.2,839.5h58.3c-4.5,3.2-9.3,6-13.2,10-4.5,4.5-6.5,10.2-7.4,16.5-.9,6.7-1.3,13.5-1.3,20.2,0,34.5.1,68.9,0,103.4,0,32.9,1.5,66.6-11.2,97.7-24.9,60.8-96.2,76-153.6,54.1-26.7-10.2-52.9-28.8-66.4-54.6-9.1-17.3-12.6-35.9-12.6-55.2,0-53.1-.1-106.2,0-159.2,0-11.9-1.8-22.8-11-32.7h61.4c-11.6,5.8-12.6,24.1-12.6,27.8,0,55.1-.2,110.1,0,165.2,0,19.4,3.2,38.3,10.9,56.3,9.1,21.3,26.2,33.3,47.2,40.7,24.1,8.4,48.5,9.7,72.5.1,33.6-13.4,52.9-38.5,59-73.9,1.4-8.2,1.5-16.7,1.5-25.1.1-51.1.1-102.2,0-153.3,0-5.2-.9-10.5-1.7-15.7-1.5-9.4-7.8-15.2-15.6-19.8-.8-.5-4.5-2-4.5-2.4"/>
      <path class="cls-1" d="M264.1,886.2c-7-9.5-13.9-18.4-23.6-24.8-6.6-4.4-13.7-7-21.7-7-46.6,0-93.3,0-139.9-.1-4.5,0-5.5,1.4-5.5,5.7.2,33.1.2,66.3,0,99.4,0,4.7,1.3,6.3,6.1,6.3,23.9-.2,47.8,0,71.7-.2,15.4-.1,27.6-6,37.4-25.5v66.8c-5.5-16.2-21.2-25.6-35.5-26.1-25-.8-50.1-.3-75.2-.4-3.4,0-4.6,1.2-4.6,4.6,0,46.3,0,92.6.2,138.9,0,8.5,3.3,16.3,10.3,23.2H23.7c9.7-7.3,11.8-17,11.8-27.1.2-84.1,0-168.1,0-252.2,0-7.5-1.4-14.8-5.6-21.2-1.5-2.4-3.7-5.1-6.1-7.8,1.6,0,2.6,0,3.9,0,51.6,0,103.2,0,154.8,0,21.4,0,42.8.4,64.3.3,4.6,0,6.9.7,8,6,2.6,12.7,6.1,25.2,9.2,37.9.2,1,0,2.1,0,3.2"/>
      <path class="cls-1" d="M394.6,1147.1h-59.7c10.9-10.6,10.7-23.3,10.7-36,0-77.8,0-155.6,0-233.4,0-13.4.5-26.8-10.4-38.3h59.4c-1.2,1.4-2.6,2.7-3.2,3.5-5.4,7.1-7.7,15-7.7,24,0,84.2,0,168.5,0,252.7,0,10.2,2.8,19.1,10.9,27.6"/>
      <path class="cls-1" d="M976.1,844.2h-12.9c0-5.6-.3-11.2-.6-16.7-.6-10.2-4.6-19.8-12.5-26.4-3.5-2.9-7.7-4.9-11.8-7.1-3.9-2.2-23.3-12.8-29-15.9-.2-.1-.4-.2-.6-.3v-44.1c0,0,26.7,13.3,38.2,19.5,13.8,7.5,22.2,19,25.7,34.4,4,18,3.7,36.3,3.6,54.5,0,.6,0,2.1,0,2.1"/>
    </g>
  </g>
</svg>