<?xml version="1.0" encoding="UTF-8"?>
<svg id="Layer_1" data-name="Layer 1" xmlns="http://www.w3.org/2000/svg" version="1.1" xmlns:xlink="http://www.w3.org/1999/xlink" viewBox="0 0 1500 1356">
  <defs>
    <style>
      .cls-1 {
        font-family: Reshnua-Regular, Reshnua;
        font-size: 63.6px;
      }

      .cls-1, .cls-2 {
        fill: #49083e;
      }

      .cls-2, .cls-3 {
        stroke-width: 0px;
      }

      .cls-3 {
        fill: none;
      }

      .cls-4 {
        clip-path: url(#clippath-1);
      }

      .cls-5 {
        letter-spacing: 0em;
      }

      .cls-6 {
        clip-path: url(#clippath);
      }

      .cls-7 {
        letter-spacing: 0em;
      }

      .cls-8 {
        letter-spacing: 0em;
      }
    </style>
    <clipPath id="clippath">
      <rect class="cls-3" x="-299.7" y="-314.3" width="2040.4" height="2040.4"/>
    </clipPath>
    <clipPath id="clippath-1">
      <rect class="cls-3" x="-299.7" y="-314.3" width="2040.4" height="2040.4"/>
    </clipPath>
  </defs>
  <g class="cls-6">
    <g class="cls-4">
      <path class="cls-2" d="M657.2,17.7s31.5,21,43.3,29c16.9,11.4,26.8,27.1,27.8,47.6.7,14.2.7,28.6,0,42.8-.5,10.4,2.3,18.6,9.8,26.1,32.4,32.3,64.9,64.5,96.3,97.8,24.7,26.2,49.1,52.9,67.5,84.3,15.4,26.2,26.9,54.1,33.1,83.9,12.1,58-19.3,116.3-74.6,139.5-36.4,15.3-74.5,23.3-113.9,25.7-42.3,2.5-84.1-.4-125.1-11.5-23.7-6.4-47.3-13.6-67.1-28.6-39.5-29.9-56.9-70.1-49.6-119,6.5-43.6,25.5-82.5,52.4-117.4,31.7-41.1,68.2-77.9,104.6-114.7,15-15.1,30.1-30.1,45.4-44.8,7.5-7.2,7.5-16.2,6.6-25.3-1.4-13.8-8.2-24.6-20-32.2-8.7-5.9-42.6-28.8-42.6-28.8l5.9-54.3Z"/>
      <path class="cls-2" d="M1248,1150.1h-58.5c1.6-1.9,2.6-3.1,3.5-4.3,4.5-6.2,6.4-13.3,6.4-20.9,0-80.6,0-161.2,0-241.8,0-18.2-9.3-31.4-24.4-41.9,2.3,0,3.7,0,5.2,0,17.6,0,35.3,0,52.9,0,17.1,0,34.3-.6,51.4.1,16,.7,32.2,1.9,47.8,5.7,20.3,4.9,40.4,14.6,54.8,30,.3.3.6.7,1,1,24.9,27.4,20.5,73.7-7.5,97.3-2.6,2.2-5.3,4.2-8.1,6-17.2,11.1-31.3,19.4-64.8,23.7,24.1,4.3,53.5,27,68.3,47.2,15.6,21.1,25.2,45.1,34.5,69.4,5,13,11.4,25.7,18.6,37.7,13.2,22.3,32.5,43.7,59.8,42.6,0,2.9,0-2.8,0,0-7.7,0-15.8.7-23.7-.1-31.3-3-51.7-16.8-71.7-40.9-14.3-17.2-23.8-37.1-31.7-58-8.1-21.5-17.1-42.7-31.3-61-17.3-22.3-45.4-34.2-73.8-33.9-4.8,0-9.5,0-14.4,0-3.3-.2-4.8.8-4.8,4.4,0,37.2-.1,74.3.1,111.5,0,9.3,2.5,18.3,10.4,26.3M1237.5,924c0,21,.1,42,0,62.9,0,4.4,1.2,5.8,5.6,5.7,13.4-.2,26.8,0,40.1-.1,17.4-.2,34.1-3.4,49-13,13.3-8.6,23.1-19.9,27.3-35.6,7.9-29.8-.2-64.8-29.2-79.8-13.2-6.8-28.3-7.2-42.8-7.6-14.8-.3-29.6,0-44.3-.1-4.3,0-5.7,1.2-5.6,5.6.2,20.6,0,41.3,0,61.9"/>
      <path class="cls-2" d="M694.6,980.6c14.9-1.1,28-.8,38.5,10.1,6.2,6.4,9.6,13.8,9.6,22.6.1,24.3.3,48.6,0,72.9-.2,14.6-8,25.5-18.8,34.5-11.3,9.4-24.4,15.3-38.4,19.6-29.6,9.2-59.9,12.7-90.5,9.2-47.8-5.6-86.8-27.2-112.7-69-10.8-17.5-17.3-36.8-20.3-57.3-3-20.1-2.7-40.1.5-60.1,2.5-15.4,7.6-29.9,14.6-43.9,15.5-30.9,39.5-52.8,71-66.4,43.7-18.9,94.7-18.9,139.4-3.3,2.4.8,4.8,1.7,7.2,2.7,6.6,2.6,13,5.7,19.4,8.9,3.2,1.6,6.3,3.2,9.5,4.8,2.7,1.3,5.6,3.4,5.6,6.8.3,20.8.3,41.6.3,62.4,0,1.7-.5,3.4-1.9,5.1-1.5-5.1-2.8-10.3-4.6-15.3-8-21.5-21.8-38.6-40.2-52-14.6-10.7-31.1-17-49.2-19-15-1.6-30-1.7-44.7,2.1-15.1,3.9-28.2,11.6-40.6,20.8-20.3,15.1-33.3,35.1-41,59.2-6.5,20.3-9.8,41.1-9.4,62.3.7,30.4,6.9,59.6,23,86,7.9,12.9,19.1,22.7,30.9,31.8,12.7,9.7,26.8,16.8,42.5,20.1,15.4,3.2,30.9,2.4,46.3,0,13.3-2.1,25.9-6.2,37.5-13.3,17.5-10.9,26.5-26.7,26.7-47.3.2-23.3.2-46.6,0-69.9,0-7.1-2.7-13.5-6.7-19.3-1.1-1.6-2-3.2-3.5-5.6"/>
      <path class="cls-2" d="M1043.3,841.6h58.4c-4.5,3.2-9.3,6.1-13.2,10-4.5,4.6-6.5,10.2-7.4,16.5-.9,6.7-1.3,13.5-1.3,20.2,0,34.5.1,69.1,0,103.6,0,33,1.5,66.7-11.2,97.9-25,61-96.5,76.2-154,54.2-26.8-10.3-53-28.8-66.5-54.7-9.1-17.4-12.6-36-12.6-55.3,0-53.2-.1-106.4,0-159.6,0-11.9-1.8-22.9-11-32.8h61.5c-11.6,5.8-12.6,24.1-12.6,27.9,0,55.2-.2,110.4,0,165.5,0,19.4,3.2,38.4,11,56.4,9.1,21.3,26.3,33.4,47.3,40.7,24.1,8.4,48.6,9.7,72.7.1,33.7-13.4,53-38.6,59.1-74,1.4-8.2,1.5-16.8,1.5-25.2.1-51.2.1-102.4,0-153.7,0-5.2-.9-10.5-1.7-15.7-1.5-9.5-7.8-15.3-15.6-19.8-.8-.5-4.6-2-4.5-2.4"/>
      <path class="cls-2" d="M267.5,888.4c-7-9.5-14-18.4-23.7-24.9-6.6-4.4-13.7-7-21.8-7-46.8,0-93.5,0-140.3-.1-4.5,0-5.5,1.5-5.5,5.7.2,33.2.2,66.4,0,99.6,0,4.7,1.3,6.3,6.1,6.3,24-.2,47.9,0,71.9-.2,15.4-.1,27.6-6,37.5-25.5v67c-5.5-16.2-21.2-25.6-35.5-26.1-25.1-.8-50.2-.3-75.3-.4-3.4,0-4.6,1.2-4.6,4.6,0,46.4,0,92.8.2,139.3,0,8.5,3.3,16.3,10.3,23.3H26.6c9.7-7.3,11.8-17,11.8-27.1.2-84.3,0-168.5,0-252.8,0-7.5-1.4-14.8-5.6-21.2-1.5-2.4-3.7-5.1-6.1-7.9,1.6,0,2.6,0,3.9,0,51.7,0,103.4,0,155.1,0,21.5,0,42.9.4,64.4.3,4.6,0,6.9.7,8,6,2.6,12.7,6.1,25.3,9.2,37.9.2,1,0,2.1,0,3.2"/>
      <path class="cls-2" d="M398.3,1150h-59.8c10.9-10.7,10.7-23.3,10.7-36.1,0-78,0-156,0-233.9,0-13.4.5-26.8-10.4-38.4h59.5c-1.2,1.4-2.6,2.7-3.2,3.5-5.4,7.1-7.7,15.1-7.7,24,0,84.4,0,168.9,0,253.3,0,10.2,2.8,19.1,10.9,27.6"/>
      <path class="cls-2" d="M981,846.4h-12.9c0-5.6-.3-11.2-.6-16.8-.6-10.2-4.6-19.8-12.5-26.4-3.6-2.9-7.8-4.9-11.8-7.1-4-2.2-23.3-12.8-29.1-16l-.6-.3v-44.2c0,0,26.8,13.3,38.2,19.6,13.8,7.6,22.3,19,25.7,34.5,4,18.1,3.7,36.4,3.6,54.7,0,.6,0,2.1,0,2.1"/>
    </g>
    <text class="cls-1" transform="translate(238.5 1323.8)"><tspan x="0" y="0">Fig </tspan><tspan class="cls-8" x="95.2" y="0">a</tspan><tspan x="128.5" y="0">t Heart, W</tspan><tspan class="cls-5" x="408.7" y="0">e</tspan><tspan class="cls-7" x="439.4" y="0">llness in Every bite</tspan></text>
  </g>
</svg>