<?xml version="1.0" encoding="UTF-8"?>
<svg id="Layer_1" data-name="Layer 1" xmlns="http://www.w3.org/2000/svg" version="1.1" xmlns:xlink="http://www.w3.org/1999/xlink" viewBox="0 0 1500 412">
  <defs>
    <style>
      .cls-1 {
        fill: #49083e;
      }

      .cls-1, .cls-2 {
        stroke-width: 0px;
      }

      .cls-2 {
        fill: none;
      }

      .cls-3 {
        clip-path: url(#clippath-1);
      }

      .cls-4 {
        clip-path: url(#clippath);
      }
    </style>
    <clipPath id="clippath">
      <rect class="cls-2" x="-149.3" y="-672.8" width="1818.6" height="1818.6"/>
    </clipPath>
    <clipPath id="clippath-1">
      <rect class="cls-2" x="-149.3" y="-672.8" width="1818.6" height="1818.6"/>
    </clipPath>
  </defs>
  <g class="cls-4">
    <g class="cls-3">
      <path class="cls-1" d="M143.4,7.3s21.7,14.5,29.9,20c11.6,7.9,18.5,18.7,19.2,32.8.5,9.8.5,19.7,0,29.6-.3,7.2,1.6,12.8,6.8,18,22.3,22.3,44.8,44.5,66.5,67.5,17.1,18.1,33.9,36.5,46.6,58.1,10.6,18.1,18.6,37.3,22.9,57.9,8.3,40-13.3,80.2-51.5,96.3-25.1,10.6-51.4,16.1-78.6,17.7-29.2,1.7-58-.3-86.3-7.9-16.3-4.4-32.6-9.4-46.3-19.8-27.2-20.7-39.3-48.3-34.2-82.1,4.5-30.1,17.6-56.9,36.1-81,21.9-28.4,47-53.7,72.2-79.1,10.3-10.4,20.8-20.7,31.3-30.9,5.2-5,5.2-11.2,4.6-17.5-1-9.5-5.7-16.9-13.8-22.2-6-4.1-29.4-19.9-29.4-19.9l4.1-37.5Z"/>
      <path class="cls-1" d="M1316.1,357.2h-40.4c1.1-1.3,1.8-2.1,2.4-3,3.1-4.3,4.4-9.2,4.4-14.4,0-55.6,0-111.2,0-166.9,0-12.6-6.4-21.7-16.8-28.9,1.6,0,2.5,0,3.6,0,12.2,0,24.3,0,36.5,0,11.8,0,23.6-.4,35.4,0,11.1.5,22.2,1.3,33,4,14,3.4,27.9,10,37.8,20.7.2.2.4.5.7.7,17.2,18.9,14.1,50.8-5.2,67.1-1.8,1.5-3.7,2.9-5.6,4.1-11.9,7.7-21.6,13.4-44.7,16.4,16.6,3,36.9,18.7,47.2,32.6,10.7,14.6,17.4,31.1,23.8,47.9,3.5,9,7.9,17.7,12.8,26,9.1,15.4,22.4,30.1,41.3,29.4,0,2,0-1.9,0,0-5.3,0-10.9.4-16.4,0-21.6-2.1-35.6-11.6-49.5-28.2-9.9-11.9-16.5-25.6-21.8-40-5.6-14.9-11.8-29.4-21.6-42.1-11.9-15.4-31.3-23.6-50.9-23.4-3.3,0-6.5,0-9.9,0-2.3-.1-3.3.6-3.3,3.1,0,25.6,0,51.3,0,76.9,0,6.4,1.7,12.6,7.2,18.1M1308.8,201.3c0,14.5,0,28.9,0,43.4,0,3,.8,4,3.8,3.9,9.2-.2,18.5,0,27.7,0,12-.2,23.5-2.4,33.8-9,9.2-5.9,16-13.7,18.8-24.6,5.4-20.5-.2-44.7-20.1-55.1-9.1-4.7-19.5-5-29.5-5.2-10.2-.2-20.4,0-30.6,0-3,0-3.9.9-3.9,3.9.1,14.2,0,28.5,0,42.7"/>
      <path class="cls-1" d="M934.3,240.3c10.3-.8,19.3-.5,26.6,7,4.3,4.4,6.6,9.6,6.6,15.6,0,16.8.2,33.5,0,50.3-.1,10.1-5.5,17.6-13,23.8-7.8,6.5-16.8,10.5-26.5,13.6-20.4,6.4-41.4,8.8-62.4,6.3-33-3.8-59.9-18.7-77.7-47.6-7.5-12.1-12-25.4-14-39.6-2-13.9-1.8-27.7.4-41.5,1.7-10.6,5.2-20.6,10.1-30.3,10.7-21.4,27.3-36.4,49-45.8,30.1-13.1,65.4-13.1,96.2-2.3,1.7.6,3.3,1.2,5,1.8,4.5,1.8,9,3.9,13.4,6.1,2.2,1.1,4.4,2.2,6.6,3.3,1.9.9,3.8,2.3,3.9,4.7.2,14.4.2,28.7.2,43.1,0,1.2-.4,2.3-1.3,3.5-1-3.5-1.9-7.1-3.2-10.5-5.6-14.8-15.1-26.6-27.7-35.9-10.1-7.4-21.4-11.7-33.9-13.1-10.4-1.1-20.7-1.2-30.9,1.5-10.4,2.7-19.5,8-28,14.3-14,10.4-23,24.2-28.3,40.8-4.5,14-6.8,28.4-6.5,43,.5,21,4.7,41.1,15.9,59.3,5.5,8.9,13.1,15.7,21.3,21.9,8.8,6.7,18.5,11.6,29.4,13.9,10.6,2.2,21.3,1.7,31.9,0,9.2-1.5,17.9-4.2,25.8-9.2,12.1-7.5,18.3-18.4,18.4-32.6.1-16.1.1-32.1,0-48.2,0-4.9-1.8-9.3-4.6-13.3-.7-1.1-1.4-2.2-2.4-3.9"/>
      <path class="cls-1" d="M1174.8,144.4h40.3c-3.1,2.2-6.4,4.2-9.1,6.9-3.1,3.1-4.5,7.1-5.1,11.4-.6,4.6-.9,9.3-.9,14,0,23.8,0,47.7,0,71.5,0,22.7,1.1,46.1-7.7,67.5-17.2,42.1-66.6,52.6-106.2,37.4-18.5-7.1-36.5-19.9-45.9-37.8-6.3-12-8.7-24.8-8.7-38.2,0-36.7,0-73.4,0-110.1,0-8.2-1.3-15.8-7.6-22.6h42.4c-8,4-8.7,16.7-8.7,19.2,0,38.1-.2,76.1,0,114.2,0,13.4,2.2,26.5,7.6,38.9,6.3,14.7,18.1,23.1,32.6,28.1,16.6,5.8,33.5,6.7,50.2,0,23.2-9.2,36.6-26.7,40.8-51.1,1-5.7,1-11.6,1-17.4,0-35.3,0-70.7,0-106,0-3.6-.6-7.2-1.2-10.8-1-6.5-5.4-10.5-10.8-13.7-.5-.3-3.1-1.4-3.1-1.7"/>
      <path class="cls-1" d="M639.6,176.7c-4.9-6.6-9.6-12.7-16.3-17.2-4.6-3-9.5-4.8-15-4.8-32.3,0-64.5,0-96.8,0-3.1,0-3.8,1-3.8,3.9.1,22.9.1,45.8,0,68.7,0,3.2.9,4.4,4.2,4.3,16.5-.2,33.1,0,49.6-.2,10.6,0,19.1-4.1,25.9-17.6v46.2c-3.8-11.2-14.6-17.7-24.5-18-17.3-.6-34.6-.2-52-.3-2.4,0-3.2.8-3.2,3.2,0,32,0,64.1.1,96.1,0,5.9,2.3,11.3,7.1,16.1h-41.6c6.7-5,8.2-11.7,8.2-18.7.1-58.1,0-116.3,0-174.4,0-5.2-.9-10.2-3.8-14.7-1.1-1.6-2.5-3.5-4.2-5.4,1.1,0,1.8,0,2.7,0,35.7,0,71.4,0,107,0,14.8,0,29.6.3,44.4.2,3.2,0,4.8.5,5.5,4.1,1.8,8.8,4.2,17.5,6.4,26.2.2.7,0,1.5,0,2.2"/>
      <path class="cls-1" d="M729.8,357.2h-41.3c7.5-7.4,7.4-16.1,7.4-24.9,0-53.8,0-107.6,0-161.4,0-9.3.3-18.5-7.2-26.5h41.1c-.8,1-1.8,1.8-2.2,2.4-3.7,4.9-5.3,10.4-5.3,16.6,0,58.3,0,116.5,0,174.8,0,7,1.9,13.2,7.5,19.1"/>
      <path class="cls-1" d="M1131.9,147.7h-8.9c0-3.9-.2-7.7-.4-11.6-.4-7-3.1-13.7-8.6-18.2-2.5-2-5.4-3.4-8.1-4.9-2.7-1.5-16.1-8.8-20.1-11-.1,0-.3-.1-.4-.2v-30.5c0,0,18.5,9.2,26.4,13.5,9.5,5.2,15.4,13.1,17.7,23.8,2.8,12.5,2.5,25.1,2.5,37.7,0,.4,0,1.4,0,1.4"/>
    </g>
  </g>
</svg>