<?xml version="1.0" encoding="UTF-8"?>
<svg id="Layer_1" data-name="Layer 1" xmlns="http://www.w3.org/2000/svg" version="1.1" xmlns:xlink="http://www.w3.org/1999/xlink" viewBox="0 0 1500 479">
  <defs>
    <style>
      .cls-1 {
        fill: #49083e;
      }

      .cls-1, .cls-2 {
        stroke-width: 0px;
      }

      .cls-2 {
        fill: none;
      }

      .cls-3 {
        clip-path: url(#clippath-1);
      }

      .cls-4 {
        clip-path: url(#clippath);
      }
    </style>
    <clipPath id="clippath">
      <rect class="cls-2" x="-303.3" y="-774.7" width="2032.3" height="2032.3"/>
    </clipPath>
    <clipPath id="clippath-1">
      <rect class="cls-2" x="-303.3" y="-774.7" width="2032.3" height="2032.3"/>
    </clipPath>
  </defs>
  <g class="cls-4">
    <g class="cls-3">
      <path class="cls-1" d="M1238.3,421.7h-58.3c1.6-1.9,2.6-3.1,3.5-4.3,4.5-6.2,6.3-13.2,6.3-20.9,0-80.3,0-160.6,0-240.9,0-18.1-9.3-31.3-24.3-41.8,2.3,0,3.7,0,5.2,0,17.6,0,35.1,0,52.7,0,17,0,34.1-.6,51.2.1,16,.7,32.1,1.9,47.6,5.7,20.3,4.9,40.2,14.5,54.6,29.9.3.3.6.7.9,1,24.8,27.3,20.4,73.4-7.5,96.9-2.6,2.2-5.3,4.2-8.1,6-17.2,11.1-31.2,19.4-64.6,23.6,24,4.3,53.3,26.9,68.1,47,15.5,21,25.1,44.9,34.4,69.1,5,13,11.4,25.6,18.5,37.5,13.2,22.2,32.3,43.5,59.6,42.4,0,2.9,0-2.8,0,0-7.7,0-15.7.6-23.6-.1-31.1-3-51.4-16.8-71.4-40.7-14.3-17.1-23.8-37-31.5-57.8-8-21.4-17-42.5-31.2-60.8-17.2-22.2-45.2-34-73.6-33.8-4.8,0-9.4,0-14.3,0-3.3-.2-4.8.8-4.8,4.4,0,37-.1,74,.1,111.1,0,9.3,2.5,18.2,10.4,26.1M1227.8,196.6c0,20.9.1,41.8,0,62.7,0,4.3,1.2,5.8,5.5,5.7,13.3-.2,26.7,0,40-.1,17.3-.2,33.9-3.4,48.8-13,13.3-8.6,23.1-19.8,27.2-35.4,7.9-29.7-.2-64.6-29.1-79.5-13.1-6.8-28.2-7.2-42.7-7.5-14.7-.3-29.4,0-44.2-.1-4.3,0-5.7,1.2-5.6,5.6.2,20.6,0,41.1,0,61.7"/>
      <path class="cls-1" d="M687.1,252.9c14.9-1.1,27.9-.8,38.4,10.1,6.1,6.4,9.5,13.8,9.6,22.6.1,24.2.3,48.4,0,72.6-.2,14.6-7.9,25.4-18.7,34.4-11.3,9.3-24.3,15.2-38.2,19.6-29.5,9.2-59.7,12.7-90.1,9.2-47.6-5.5-86.5-27.1-112.2-68.7-10.8-17.5-17.3-36.6-20.3-57.1-2.9-20.1-2.6-40,.5-59.9,2.4-15.3,7.6-29.8,14.6-43.7,15.4-30.8,39.3-52.6,70.7-66.2,43.5-18.9,94.4-18.9,138.8-3.3,2.4.8,4.8,1.7,7.2,2.7,6.6,2.6,13,5.7,19.3,8.8,3.2,1.6,6.3,3.2,9.5,4.8,2.7,1.3,5.6,3.4,5.6,6.7.3,20.7.3,41.5.3,62.2,0,1.7-.5,3.4-1.8,5.1-1.5-5.1-2.7-10.3-4.6-15.2-8-21.4-21.7-38.4-40.1-51.8-14.6-10.7-30.9-17-49-18.9-15-1.6-29.8-1.7-44.6,2.1-15.1,3.9-28.1,11.5-40.5,20.7-20.3,15.1-33.1,35-40.8,58.9-6.5,20.3-9.8,41-9.3,62,.7,30.2,6.8,59.4,22.9,85.7,7.9,12.9,19,22.6,30.8,31.7,12.7,9.7,26.6,16.8,42.4,20.1,15.4,3.2,30.7,2.4,46.1,0,13.2-2.1,25.8-6.1,37.3-13.3,17.4-10.8,26.4-26.6,26.6-47.1.2-23.2.2-46.4,0-69.6,0-7-2.7-13.5-6.7-19.3-1.1-1.6-2-3.2-3.5-5.6"/>
      <path class="cls-1" d="M1034.4,114.5h58.2c-4.5,3.2-9.3,6-13.2,10-4.5,4.5-6.5,10.2-7.4,16.4-.9,6.7-1.3,13.4-1.3,20.1,0,34.4.1,68.8,0,103.2,0,32.8,1.5,66.5-11.2,97.5-24.9,60.7-96.1,75.9-153.4,54-26.7-10.2-52.8-28.7-66.3-54.5-9.1-17.3-12.5-35.8-12.5-55.1,0-53-.1-106,0-159,0-11.9-1.8-22.8-11-32.7h61.3c-11.6,5.8-12.5,24-12.5,27.8,0,55-.2,109.9,0,164.9,0,19.3,3.2,38.2,10.9,56.2,9.1,21.2,26.2,33.3,47.1,40.6,24,8.4,48.4,9.7,72.4.1,33.5-13.3,52.8-38.5,58.9-73.7,1.4-8.2,1.5-16.7,1.5-25.1.1-51,.1-102,0-153,0-5.2-.9-10.5-1.7-15.6-1.5-9.4-7.8-15.2-15.6-19.7-.8-.4-4.5-2-4.5-2.4"/>
      <path class="cls-1" d="M261.7,161.1c-7-9.5-13.9-18.3-23.6-24.8-6.6-4.4-13.7-7-21.7-7-46.6,0-93.1,0-139.7-.1-4.4,0-5.5,1.4-5.5,5.7.2,33.1.2,66.1,0,99.2,0,4.7,1.3,6.3,6.1,6.3,23.9-.2,47.7,0,71.6-.2,15.4-.1,27.5-6,37.4-25.4v66.7c-5.5-16.1-21.1-25.5-35.4-26-25-.8-50-.3-75-.4-3.4,0-4.6,1.2-4.6,4.6,0,46.2,0,92.5.2,138.7,0,8.5,3.3,16.3,10.3,23.2H21.7c9.7-7.2,11.8-17,11.8-27,.2-83.9,0-167.8,0-251.8,0-7.5-1.4-14.8-5.5-21.2-1.5-2.4-3.7-5-6.1-7.8,1.6,0,2.6,0,3.9,0,51.5,0,103,0,154.5,0,21.4,0,42.8.4,64.2.3,4.6,0,6.9.7,7.9,6,2.6,12.7,6.1,25.2,9.2,37.8.2,1,0,2.1,0,3.2"/>
      <path class="cls-1" d="M391.9,421.6h-59.6c10.9-10.6,10.7-23.2,10.7-36,0-77.7,0-155.3,0-233,0-13.4.5-26.7-10.4-38.3h59.3c-1.2,1.4-2.5,2.7-3.2,3.5-5.3,7.1-7.7,15-7.7,23.9,0,84.1,0,168.2,0,252.3,0,10.2,2.8,19.1,10.9,27.5"/>
      <path class="cls-1" d="M972.4,119.2h-12.9c0-5.6-.3-11.2-.6-16.7-.6-10.1-4.5-19.8-12.5-26.3-3.5-2.9-7.7-4.9-11.7-7.1-3.9-2.1-23.3-12.8-29-15.9-.2-.1-.4-.2-.6-.3V8.8c0,0,26.7,13.3,38.1,19.5,13.8,7.5,22.2,19,25.6,34.4,4,18,3.7,36.2,3.6,54.4,0,.6,0,2.1,0,2.1"/>
    </g>
  </g>
</svg>