<?xml version="1.0" encoding="UTF-8"?>
<svg id="Layer_1" data-name="Layer 1" xmlns="http://www.w3.org/2000/svg" version="1.1" xmlns:xlink="http://www.w3.org/1999/xlink" viewBox="0 0 1125 1500">
  <defs>
    <style>
      .cls-1 {
        fill: #49083e;
      }

      .cls-1, .cls-2 {
        stroke-width: 0px;
      }

      .cls-2 {
        fill: none;
      }

      .cls-3 {
        clip-path: url(#clippath-1);
      }

      .cls-4 {
        clip-path: url(#clippath);
      }
    </style>
    <clipPath id="clippath">
      <rect class="cls-2" x="-700.7" y="-436.7" width="2532.1" height="2532.1"/>
    </clipPath>
    <clipPath id="clippath-1">
      <rect class="cls-2" x="-700.7" y="-436.7" width="2532.1" height="2532.1"/>
    </clipPath>
  </defs>
  <g class="cls-4">
    <g class="cls-3">
      <path class="cls-1" d="M407.2,26.2s78.6,52.4,108.3,72.4c42.2,28.5,67.1,67.7,69.5,118.9,1.7,35.6,1.8,71.4.2,107-1.2,26,5.6,46.4,24.4,65.2,80.9,80.8,162.2,161.2,240.6,244.4,61.7,65.5,122.6,132.2,168.6,210.5,38.5,65.5,67.2,135.1,82.7,209.5,30.2,144.8-48.2,290.4-186.3,348.5-91,38.3-186.1,58.3-284.4,64.2-105.7,6.3-210.1-1-312.5-28.7-59.1-16-118.1-33.9-167.7-71.6-98.6-74.8-142.1-175-123.8-297.3,16.3-109,63.8-206.2,130.9-293.1,79.1-102.6,170.3-194.5,261.4-286.4,37.4-37.7,75.2-75.1,113.3-112,18.7-18.1,18.8-40.6,16.5-63.2-3.5-34.5-20.6-61.3-50-80.5-21.7-14.7-106.4-72-106.4-72l14.7-135.7Z"/>
    </g>
  </g>
</svg>