<?xml version="1.0" encoding="UTF-8"?>
<svg id="Layer_1" data-name="Layer 1" xmlns="http://www.w3.org/2000/svg" version="1.1" xmlns:xlink="http://www.w3.org/1999/xlink" viewBox="0 0 1352 1500">
  <defs>
    <style>
      .cls-1 {
        fill: #49083e;
      }

      .cls-1, .cls-2 {
        stroke-width: 0px;
      }

      .cls-2 {
        fill: none;
      }

      .cls-3 {
        clip-path: url(#clippath-1);
      }

      .cls-4 {
        clip-path: url(#clippath);
      }
    </style>
    <clipPath id="clippath">
      <rect class="cls-2" x="-300.5" y="-235.4" width="1952.9" height="1952.9"/>
    </clipPath>
    <clipPath id="clippath-1">
      <rect class="cls-2" x="-300.5" y="-235.4" width="1952.9" height="1952.9"/>
    </clipPath>
  </defs>
  <g class="cls-4">
    <g class="cls-3">
      <path class="cls-1" d="M177.7,29.8s2.4,12.2,3.3,16.8c1.3,6.6,0,12.6-4.6,17.6-3.2,3.5-6.5,6.8-10,10-2.5,2.3-3.8,4.9-3.8,8.4,0,15.1,0,30.1-.4,45.2-.3,11.8-.9,23.7-3.9,35.3-2.5,9.7-6.3,18.8-11.8,27.2-10.7,16.3-31.5,22.6-49.8,15.1-12-4.9-22.8-11.9-32.5-20.5-10.4-9.3-19.5-19.7-26.4-31.8-4-7-7.8-14.2-9-22.3-2.2-16.2,3.1-29.5,16.2-39.2,11.7-8.6,25.1-13.3,39.5-15.1,16.9-2.2,34-2.3,51-2.3,7,0,14,0,21,.1,3.4,0,5.5-2,7.4-4.4,2.9-3.5,3.8-7.6,2.8-12.2-.7-3.4-3.2-16.6-3.2-16.6l14-11.3Z"/>
      <path class="cls-1" d="M426.3,214.5s-12.2,2.4-16.8,3.3c-6.6,1.3-12.6,0-17.6-4.6-3.5-3.2-6.8-6.5-10-10-2.3-2.5-4.9-3.8-8.4-3.8-15.1,0-30.1,0-45.2-.4-11.8-.3-23.7-.9-35.3-3.9-9.7-2.5-18.8-6.3-27.2-11.8-16.3-10.7-22.6-31.5-15.1-49.8,4.9-12,11.9-22.8,20.5-32.5,9.3-10.4,19.7-19.5,31.8-26.4,7-4,14.2-7.8,22.3-9,16.2-2.2,29.5,3.1,39.2,16.2,8.6,11.7,13.3,25.1,15.1,39.5,2.2,16.9,2.3,34,2.3,51,0,7,0,14-.1,21,0,3.4,2,5.5,4.4,7.4,3.5,2.9,7.6,3.8,12.2,2.8,3.4-.7,16.6-3.2,16.6-3.2l11.3,14Z"/>
      <path class="cls-1" d="M628.9,29.8s2.4,12.2,3.3,16.8c1.3,6.6,0,12.6-4.6,17.6-3.2,3.5-6.5,6.8-10,10-2.5,2.3-3.8,4.9-3.8,8.4,0,15.1,0,30.1-.4,45.2-.3,11.8-.9,23.7-3.9,35.3-2.5,9.7-6.3,18.8-11.8,27.2-10.7,16.3-31.5,22.6-49.8,15.1-12-4.9-22.8-11.9-32.5-20.5-10.4-9.3-19.5-19.7-26.4-31.8-4-7-7.8-14.2-9-22.3-2.2-16.2,3.1-29.5,16.2-39.2,11.7-8.6,25.1-13.3,39.5-15.1,16.9-2.2,34-2.3,51-2.3,7,0,14,0,21,.1,3.4,0,5.5-2,7.4-4.4,2.9-3.5,3.8-7.6,2.8-12.2-.7-3.4-3.2-16.6-3.2-16.6l14-11.3Z"/>
      <path class="cls-1" d="M880,214.5s-12.2,2.4-16.8,3.3c-6.6,1.3-12.6,0-17.6-4.6-3.5-3.2-6.8-6.5-10-10-2.3-2.5-4.9-3.8-8.4-3.8-15.1,0-30.1,0-45.2-.4-11.8-.3-23.7-.9-35.3-3.9-9.7-2.5-18.8-6.3-27.2-11.8-16.3-10.7-22.6-31.5-15.1-49.8,4.9-12,11.9-22.8,20.5-32.5,9.3-10.4,19.7-19.5,31.8-26.4,7-4,14.2-7.8,22.3-9,16.2-2.2,29.5,3.1,39.2,16.2,8.6,11.7,13.3,25.1,15.1,39.5,2.2,16.9,2.3,34,2.3,51,0,7,0,14-.1,21,0,3.4,2,5.5,4.4,7.4,3.5,2.9,7.6,3.8,12.2,2.8,3.4-.7,16.6-3.2,16.6-3.2l11.3,14Z"/>
      <path class="cls-1" d="M1080.2,29.8s2.4,12.2,3.3,16.8c1.3,6.6,0,12.6-4.6,17.6-3.2,3.5-6.5,6.8-10,10-2.5,2.3-3.8,4.9-3.8,8.4,0,15.1,0,30.1-.4,45.2-.3,11.8-.9,23.7-3.9,35.3-2.5,9.7-6.3,18.8-11.8,27.2-10.7,16.3-31.5,22.6-49.8,15.1-12-4.9-22.8-11.9-32.5-20.5-10.4-9.3-19.5-19.7-26.4-31.8-4-7-7.8-14.2-9-22.3-2.2-16.2,3.1-29.5,16.2-39.2,11.7-8.6,25.1-13.3,39.5-15.1,16.9-2.2,34-2.3,51-2.3,7,0,14,0,21,.1,3.4,0,5.5-2,7.4-4.4,2.9-3.5,3.8-7.6,2.8-12.2-.7-3.4-3.2-16.6-3.2-16.6l14-11.3Z"/>
      <path class="cls-1" d="M1333.6,214.5s-12.2,2.4-16.8,3.3c-6.6,1.3-12.6,0-17.6-4.6-3.5-3.2-6.8-6.5-10-10-2.3-2.5-4.9-3.8-8.4-3.8-15.1,0-30.1,0-45.2-.4-11.8-.3-23.7-.9-35.3-3.9-9.7-2.5-18.8-6.3-27.2-11.8-16.3-10.7-22.6-31.5-15.1-49.8,4.9-12,11.9-22.8,20.5-32.5,9.3-10.4,19.7-19.5,31.8-26.4,7-4,14.2-7.8,22.3-9,16.2-2.2,29.5,3.1,39.2,16.2,8.6,11.7,13.3,25.1,15.1,39.5,2.2,16.9,2.3,34,2.3,51,0,7,0,14-.1,21,0,3.4,2,5.5,4.4,7.4,3.5,2.9,7.6,3.8,12.2,2.8,3.4-.7,16.6-3.2,16.6-3.2l11.3,14Z"/>
      <path class="cls-1" d="M1184.3,474.8s-2.4-12.2-3.3-16.8c-1.3-6.6,0-12.6,4.6-17.6,3.2-3.5,6.5-6.8,10-10,2.5-2.3,3.8-4.9,3.8-8.4,0-15.1,0-30.1.4-45.2.3-11.8.9-23.7,3.9-35.3,2.5-9.7,6.3-18.8,11.8-27.2,10.7-16.3,31.5-22.6,49.8-15.1,12,4.9,22.8,11.9,32.5,20.5,10.4,9.3,19.5,19.7,26.4,31.8,4,7,7.8,14.2,9,22.3,2.2,16.2-3.1,29.5-16.2,39.2-11.7,8.6-25.1,13.3-39.5,15.1-16.9,2.2-34,2.3-51,2.3-7,0-14,0-21-.1-3.4,0-5.5,2-7.4,4.4-2.9,3.5-3.8,7.6-2.8,12.2.7,3.4,3.2,16.6,3.2,16.6l-14,11.3Z"/>
      <path class="cls-1" d="M935.7,290s12.2-2.4,16.8-3.3c6.6-1.3,12.6,0,17.6,4.6,3.5,3.2,6.8,6.5,10,10,2.3,2.5,4.9,3.8,8.4,3.8,15.1,0,30.1,0,45.2.4,11.8.3,23.7.9,35.3,3.9,9.7,2.5,18.8,6.3,27.2,11.8,16.3,10.7,22.6,31.5,15.1,49.8-4.9,12-11.9,22.8-20.5,32.5-9.3,10.4-19.7,19.5-31.8,26.4-7,4-14.2,7.8-22.3,9-16.2,2.2-29.5-3.1-39.2-16.2-8.6-11.7-13.3-25.1-15.1-39.5-2.2-16.9-2.3-34-2.3-51,0-7,0-14,.1-21,0-3.4-2-5.5-4.4-7.4-3.5-2.9-7.6-3.8-12.2-2.8-3.4.7-16.6,3.2-16.6,3.2l-11.3-14Z"/>
      <path class="cls-1" d="M733.1,474.8s-2.4-12.2-3.3-16.8c-1.3-6.6,0-12.6,4.6-17.6,3.2-3.5,6.5-6.8,10-10,2.5-2.3,3.8-4.9,3.8-8.4,0-15.1,0-30.1.4-45.2.3-11.8.9-23.7,3.9-35.3,2.5-9.7,6.3-18.8,11.8-27.2,10.7-16.3,31.5-22.6,49.8-15.1,12,4.9,22.8,11.9,32.5,20.5,10.4,9.3,19.5,19.7,26.4,31.8,4,7,7.8,14.2,9,22.3,2.2,16.2-3.1,29.5-16.2,39.2-11.7,8.6-25.1,13.3-39.5,15.1-16.9,2.2-34,2.3-51,2.3-7,0-14,0-21-.1-3.4,0-5.5,2-7.4,4.4-2.9,3.5-3.8,7.6-2.8,12.2.7,3.4,3.2,16.6,3.2,16.6l-14,11.3Z"/>
      <path class="cls-1" d="M482.1,290s12.2-2.4,16.8-3.3c6.6-1.3,12.6,0,17.6,4.6,3.5,3.2,6.8,6.5,10,10,2.3,2.5,4.9,3.8,8.4,3.8,15.1,0,30.1,0,45.2.4,11.8.3,23.7.9,35.3,3.9,9.7,2.5,18.8,6.3,27.2,11.8,16.3,10.7,22.6,31.5,15.1,49.8-4.9,12-11.9,22.8-20.5,32.5-9.3,10.4-19.7,19.5-31.8,26.4-7,4-14.2,7.8-22.3,9-16.2,2.2-29.5-3.1-39.2-16.2-8.6-11.7-13.3-25.1-15.1-39.5-2.2-16.9-2.3-34-2.3-51,0-7,0-14,.1-21,0-3.4-2-5.5-4.4-7.4-3.5-2.9-7.6-3.8-12.2-2.8-3.4.7-16.6,3.2-16.6,3.2l-11.3-14Z"/>
      <path class="cls-1" d="M281.8,474.8s-2.4-12.2-3.3-16.8c-1.3-6.6,0-12.6,4.6-17.6,3.2-3.5,6.5-6.8,10-10,2.5-2.3,3.8-4.9,3.8-8.4,0-15.1,0-30.1.4-45.2.3-11.8.9-23.7,3.9-35.3,2.5-9.7,6.3-18.8,11.8-27.2,10.7-16.3,31.5-22.6,49.8-15.1,12,4.9,22.8,11.9,32.5,20.5,10.4,9.3,19.5,19.7,26.4,31.8,4,7,7.8,14.2,9,22.3,2.2,16.2-3.1,29.5-16.2,39.2-11.7,8.6-25.1,13.3-39.5,15.1-16.9,2.2-34,2.3-51,2.3-7,0-14,0-21-.1-3.4,0-5.5,2-7.4,4.4-2.9,3.5-3.8,7.6-2.8,12.2.7,3.4,3.2,16.6,3.2,16.6l-14,11.3Z"/>
      <path class="cls-1" d="M28.4,290s12.2-2.4,16.8-3.3c6.6-1.3,12.6,0,17.6,4.6,3.5,3.2,6.8,6.5,10,10,2.3,2.5,4.9,3.8,8.4,3.8,15.1,0,30.1,0,45.2.4,11.8.3,23.7.9,35.3,3.9,9.7,2.5,18.8,6.3,27.2,11.8,16.3,10.7,22.6,31.5,15.1,49.8-4.9,12-11.9,22.8-20.5,32.5-9.3,10.4-19.7,19.5-31.8,26.4-7,4-14.2,7.8-22.3,9-16.2,2.2-29.5-3.1-39.2-16.2-8.6-11.7-13.3-25.1-15.1-39.5-2.2-16.9-2.3-34-2.3-51,0-7,0-14,.1-21,0-3.4-2-5.5-4.4-7.4-3.5-2.9-7.6-3.8-12.2-2.8-3.4.7-16.6,3.2-16.6,3.2l-11.3-14Z"/>
      <path class="cls-1" d="M474.8,471.4l4.9,4.9c-2.1,2.1-4.2,4.4-6.2,6.6-3.7,4.1-5.8,9.3-5.3,14.8.2,2.5,1.1,4.8,1.8,7.2.7,2.3,4,13.8,5,17.2v.3c0,0-16.8,16.8-16.8,16.8,0,0-5.1-15.2-7.1-22-2.4-8.1-1.2-15.7,3.3-22.9,5.4-8.4,12.4-15.2,19.4-22.2.2-.2.8-.8.8-.8"/>
      <path class="cls-1" d="M907.6,539.3l-4.9-4.9c2.1-2.1,4.2-4.4,6.2-6.6,3.7-4.1,5.8-9.3,5.3-14.8-.2-2.5-1.1-4.8-1.8-7.2-.7-2.3-4-13.8-5-17.2v-.3c0,0,16.8-16.8,16.8-16.8,0,0,5.1,15.2,7.1,22,2.4,8.1,1.2,15.7-3.3,22.9-5.4,8.4-12.4,15.2-19.4,22.2-.2.2-.8.8-.8.8"/>
      <path class="cls-1" d="M177.7,534.1s2.4,12.2,3.3,16.8c1.3,6.6,0,12.6-4.6,17.6-3.2,3.5-6.5,6.8-10,10-2.5,2.3-3.8,4.9-3.8,8.4,0,15.1,0,30.1-.4,45.2-.3,11.8-.9,23.7-3.9,35.3-2.5,9.7-6.3,18.8-11.8,27.2-10.7,16.3-31.5,22.6-49.8,15.1-12-4.9-22.8-11.9-32.5-20.5-10.4-9.3-19.5-19.7-26.4-31.8-4-7-7.8-14.2-9-22.3-2.2-16.2,3.1-29.5,16.2-39.2,11.7-8.6,25.1-13.3,39.5-15.1,16.9-2.2,34-2.3,51-2.3,7,0,14,0,21,.1,3.4,0,5.5-2,7.4-4.4,2.9-3.5,3.8-7.6,2.8-12.2-.7-3.4-3.2-16.6-3.2-16.6l14-11.3Z"/>
      <path class="cls-1" d="M426.3,718.9s-12.2,2.4-16.8,3.3c-6.6,1.3-12.6,0-17.6-4.6-3.5-3.2-6.8-6.5-10-10-2.3-2.5-4.9-3.8-8.4-3.8-15.1,0-30.1,0-45.2-.4-11.8-.3-23.7-.9-35.3-3.9-9.7-2.5-18.8-6.3-27.2-11.8-16.3-10.7-22.6-31.5-15.1-49.8,4.9-12,11.9-22.8,20.5-32.5,9.3-10.4,19.7-19.5,31.8-26.4,7-4,14.2-7.8,22.3-9,16.2-2.2,29.5,3.1,39.2,16.2,8.6,11.7,13.3,25.1,15.1,39.5,2.2,16.9,2.3,34,2.3,51,0,7,0,14-.1,21,0,3.4,2,5.5,4.4,7.4,3.5,2.9,7.6,3.8,12.2,2.8,3.4-.7,16.6-3.2,16.6-3.2l11.3,14Z"/>
      <path class="cls-1" d="M628.9,534.1s2.4,12.2,3.3,16.8c1.3,6.6,0,12.6-4.6,17.6-3.2,3.5-6.5,6.8-10,10-2.5,2.3-3.8,4.9-3.8,8.4,0,15.1,0,30.1-.4,45.2-.3,11.8-.9,23.7-3.9,35.3-2.5,9.7-6.3,18.8-11.8,27.2-10.7,16.3-31.5,22.6-49.8,15.1-12-4.9-22.8-11.9-32.5-20.5-10.4-9.3-19.5-19.7-26.4-31.8-4-7-7.8-14.2-9-22.3-2.2-16.2,3.1-29.5,16.2-39.2,11.7-8.6,25.1-13.3,39.5-15.1,16.9-2.2,34-2.3,51-2.3,7,0,14,0,21,.1,3.4,0,5.5-2,7.4-4.4,2.9-3.5,3.8-7.6,2.8-12.2-.7-3.4-3.2-16.6-3.2-16.6l14-11.3Z"/>
      <path class="cls-1" d="M880,718.9s-12.2,2.4-16.8,3.3c-6.6,1.3-12.6,0-17.6-4.6-3.5-3.2-6.8-6.5-10-10-2.3-2.5-4.9-3.8-8.4-3.8-15.1,0-30.1,0-45.2-.4-11.8-.3-23.7-.9-35.3-3.9-9.7-2.5-18.8-6.3-27.2-11.8-16.3-10.7-22.6-31.5-15.1-49.8,4.9-12,11.9-22.8,20.5-32.5,9.3-10.4,19.7-19.5,31.8-26.4,7-4,14.2-7.8,22.3-9,16.2-2.2,29.5,3.1,39.2,16.2,8.6,11.7,13.3,25.1,15.1,39.5,2.2,16.9,2.3,34,2.3,51,0,7,0,14-.1,21,0,3.4,2,5.5,4.4,7.4,3.5,2.9,7.6,3.8,12.2,2.8,3.4-.7,16.6-3.2,16.6-3.2l11.3,14Z"/>
      <path class="cls-1" d="M1080.2,534.1s2.4,12.2,3.3,16.8c1.3,6.6,0,12.6-4.6,17.6-3.2,3.5-6.5,6.8-10,10-2.5,2.3-3.8,4.9-3.8,8.4,0,15.1,0,30.1-.4,45.2-.3,11.8-.9,23.7-3.9,35.3-2.5,9.7-6.3,18.8-11.8,27.2-10.7,16.3-31.5,22.6-49.8,15.1-12-4.9-22.8-11.9-32.5-20.5-10.4-9.3-19.5-19.7-26.4-31.8-4-7-7.8-14.2-9-22.3-2.2-16.2,3.1-29.5,16.2-39.2,11.7-8.6,25.1-13.3,39.5-15.1,16.9-2.2,34-2.3,51-2.3,7,0,14,0,21,.1,3.4,0,5.5-2,7.4-4.4,2.9-3.5,3.8-7.6,2.8-12.2-.7-3.4-3.2-16.6-3.2-16.6l14-11.3Z"/>
      <path class="cls-1" d="M1333.6,718.9s-12.2,2.4-16.8,3.3c-6.6,1.3-12.6,0-17.6-4.6-3.5-3.2-6.8-6.5-10-10-2.3-2.5-4.9-3.8-8.4-3.8-15.1,0-30.1,0-45.2-.4-11.8-.3-23.7-.9-35.3-3.9-9.7-2.5-18.8-6.3-27.2-11.8-16.3-10.7-22.6-31.5-15.1-49.8,4.9-12,11.9-22.8,20.5-32.5,9.3-10.4,19.7-19.5,31.8-26.4,7-4,14.2-7.8,22.3-9,16.2-2.2,29.5,3.1,39.2,16.2,8.6,11.7,13.3,25.1,15.1,39.5,2.2,16.9,2.3,34,2.3,51,0,7,0,14-.1,21,0,3.4,2,5.5,4.4,7.4,3.5,2.9,7.6,3.8,12.2,2.8,3.4-.7,16.6-3.2,16.6-3.2l11.3,14Z"/>
      <path class="cls-1" d="M1184.3,979.1s-2.4-12.2-3.3-16.8c-1.3-6.6,0-12.6,4.6-17.6,3.2-3.5,6.5-6.8,10-10,2.5-2.3,3.8-4.9,3.8-8.4,0-15.1,0-30.1.4-45.2.3-11.8.9-23.7,3.9-35.3,2.5-9.7,6.3-18.8,11.8-27.2,10.7-16.3,31.5-22.6,49.8-15.1,12,4.9,22.8,11.9,32.5,20.5,10.4,9.3,19.5,19.7,26.4,31.8,4,7,7.8,14.2,9,22.3,2.2,16.2-3.1,29.5-16.2,39.2-11.7,8.6-25.1,13.3-39.5,15.1-16.9,2.2-34,2.3-51,2.3-7,0-14,0-21-.1-3.4,0-5.5,2-7.4,4.4-2.9,3.5-3.8,7.6-2.8,12.2.7,3.4,3.2,16.6,3.2,16.6l-14,11.3Z"/>
      <path class="cls-1" d="M935.7,794.3s12.2-2.4,16.8-3.3c6.6-1.3,12.6,0,17.6,4.6,3.5,3.2,6.8,6.5,10,10,2.3,2.5,4.9,3.8,8.4,3.8,15.1,0,30.1,0,45.2.4,11.8.3,23.7.9,35.3,3.9,9.7,2.5,18.8,6.3,27.2,11.8,16.3,10.7,22.6,31.5,15.1,49.8-4.9,12-11.9,22.8-20.5,32.5-9.3,10.4-19.7,19.5-31.8,26.4-7,4-14.2,7.8-22.3,9-16.2,2.2-29.5-3.1-39.2-16.2-8.6-11.7-13.3-25.1-15.1-39.5-2.2-16.9-2.3-34-2.3-51,0-7,0-14,.1-21,0-3.4-2-5.5-4.4-7.4-3.5-2.9-7.6-3.8-12.2-2.8-3.4.7-16.6,3.2-16.6,3.2l-11.3-14Z"/>
      <path class="cls-1" d="M733.1,979.1s-2.4-12.2-3.3-16.8c-1.3-6.6,0-12.6,4.6-17.6,3.2-3.5,6.5-6.8,10-10,2.5-2.3,3.8-4.9,3.8-8.4,0-15.1,0-30.1.4-45.2.3-11.8.9-23.7,3.9-35.3,2.5-9.7,6.3-18.8,11.8-27.2,10.7-16.3,31.5-22.6,49.8-15.1,12,4.9,22.8,11.9,32.5,20.5,10.4,9.3,19.5,19.7,26.4,31.8,4,7,7.8,14.2,9,22.3,2.2,16.2-3.1,29.5-16.2,39.2-11.7,8.6-25.1,13.3-39.5,15.1-16.9,2.2-34,2.3-51,2.3-7,0-14,0-21-.1-3.4,0-5.5,2-7.4,4.4-2.9,3.5-3.8,7.6-2.8,12.2.7,3.4,3.2,16.6,3.2,16.6l-14,11.3Z"/>
      <path class="cls-1" d="M482.1,794.3s12.2-2.4,16.8-3.3c6.6-1.3,12.6,0,17.6,4.6,3.5,3.2,6.8,6.5,10,10,2.3,2.5,4.9,3.8,8.4,3.8,15.1,0,30.1,0,45.2.4,11.8.3,23.7.9,35.3,3.9,9.7,2.5,18.8,6.3,27.2,11.8,16.3,10.7,22.6,31.5,15.1,49.8-4.9,12-11.9,22.8-20.5,32.5-9.3,10.4-19.7,19.5-31.8,26.4-7,4-14.2,7.8-22.3,9-16.2,2.2-29.5-3.1-39.2-16.2-8.6-11.7-13.3-25.1-15.1-39.5-2.2-16.9-2.3-34-2.3-51,0-7,0-14,.1-21,0-3.4-2-5.5-4.4-7.4-3.5-2.9-7.6-3.8-12.2-2.8-3.4.7-16.6,3.2-16.6,3.2l-11.3-14Z"/>
      <path class="cls-1" d="M281.8,979.1s-2.4-12.2-3.3-16.8c-1.3-6.6,0-12.6,4.6-17.6,3.2-3.5,6.5-6.8,10-10,2.5-2.3,3.8-4.9,3.8-8.4,0-15.1,0-30.1.4-45.2.3-11.8.9-23.7,3.9-35.3,2.5-9.7,6.3-18.8,11.8-27.2,10.7-16.3,31.5-22.6,49.8-15.1,12,4.9,22.8,11.9,32.5,20.5,10.4,9.3,19.5,19.7,26.4,31.8,4,7,7.8,14.2,9,22.3,2.2,16.2-3.1,29.5-16.2,39.2-11.7,8.6-25.1,13.3-39.5,15.1-16.9,2.2-34,2.3-51,2.3-7,0-14,0-21-.1-3.4,0-5.5,2-7.4,4.4-2.9,3.5-3.8,7.6-2.8,12.2.7,3.4,3.2,16.6,3.2,16.6l-14,11.3Z"/>
      <path class="cls-1" d="M28.4,794.3s12.2-2.4,16.8-3.3c6.6-1.3,12.6,0,17.6,4.6,3.5,3.2,6.8,6.5,10,10,2.3,2.5,4.9,3.8,8.4,3.8,15.1,0,30.1,0,45.2.4,11.8.3,23.7.9,35.3,3.9,9.7,2.5,18.8,6.3,27.2,11.8,16.3,10.7,22.6,31.5,15.1,49.8-4.9,12-11.9,22.8-20.5,32.5-9.3,10.4-19.7,19.5-31.8,26.4-7,4-14.2,7.8-22.3,9-16.2,2.2-29.5-3.1-39.2-16.2-8.6-11.7-13.3-25.1-15.1-39.5-2.2-16.9-2.3-34-2.3-51,0-7,0-14,.1-21,0-3.4-2-5.5-4.4-7.4-3.5-2.9-7.6-3.8-12.2-2.8-3.4.7-16.6,3.2-16.6,3.2l-11.3-14Z"/>
      <path class="cls-1" d="M474.8,975.8l4.9,4.9c-2.1,2.1-4.2,4.4-6.2,6.6-3.7,4.1-5.8,9.3-5.3,14.8.2,2.5,1.1,4.8,1.8,7.2.7,2.3,4,13.8,5,17.2,0,.1,0,.2,0,.3l-16.9,16.8s-5.1-15.2-7.1-22c-2.4-8.1-1.2-15.7,3.3-22.9,5.4-8.4,12.4-15.2,19.4-22.2.2-.2.8-.8.8-.8"/>
      <path class="cls-1" d="M907.6,1043.6l-4.9-4.9c2.1-2.1,4.2-4.4,6.2-6.6,3.7-4.1,5.8-9.3,5.3-14.8-.2-2.5-1.1-4.8-1.8-7.2-.7-2.3-4-13.8-5-17.2,0-.1,0-.2,0-.3l16.9-16.8s5.1,15.2,7.1,22c2.4,8.1,1.2,15.7-3.3,22.9-5.4,8.4-12.4,15.2-19.4,22.2-.2.2-.8.8-.8.8"/>
      <path class="cls-1" d="M177.7,1034.4s2.4,12.2,3.3,16.8c1.3,6.6,0,12.6-4.6,17.6-3.2,3.5-6.5,6.8-10,10-2.5,2.3-3.8,4.9-3.8,8.4,0,15.1,0,30.1-.4,45.2-.3,11.8-.9,23.7-3.9,35.3-2.5,9.7-6.3,18.8-11.8,27.2-10.7,16.3-31.5,22.6-49.8,15.1-12-4.9-22.8-11.9-32.5-20.5-10.4-9.3-19.5-19.7-26.4-31.8-4-7-7.8-14.2-9-22.3-2.2-16.2,3.1-29.5,16.2-39.2,11.7-8.6,25.1-13.3,39.5-15.1,16.9-2.2,34-2.3,51-2.3,7,0,14,0,21,.1,3.4,0,5.5-2,7.4-4.4,2.9-3.5,3.8-7.6,2.8-12.2-.7-3.4-3.2-16.6-3.2-16.6l14-11.3Z"/>
      <path class="cls-1" d="M426.3,1219.1s-12.2,2.4-16.8,3.3c-6.6,1.3-12.6,0-17.6-4.6-3.5-3.2-6.8-6.5-10-10-2.3-2.5-4.9-3.8-8.4-3.8-15.1,0-30.1,0-45.2-.4-11.8-.3-23.7-.9-35.3-3.9-9.7-2.5-18.8-6.3-27.2-11.8-16.3-10.7-22.6-31.5-15.1-49.8,4.9-12,11.9-22.8,20.5-32.5,9.3-10.4,19.7-19.5,31.8-26.4,7-4,14.2-7.8,22.3-9,16.2-2.2,29.5,3.1,39.2,16.2,8.6,11.7,13.3,25.1,15.1,39.5,2.2,16.9,2.3,34,2.3,51,0,7,0,14-.1,21,0,3.4,2,5.5,4.4,7.4,3.5,2.9,7.6,3.8,12.2,2.8,3.4-.7,16.6-3.2,16.6-3.2l11.3,14Z"/>
      <path class="cls-1" d="M628.9,1034.4s2.4,12.2,3.3,16.8c1.3,6.6,0,12.6-4.6,17.6-3.2,3.5-6.5,6.8-10,10-2.5,2.3-3.8,4.9-3.8,8.4,0,15.1,0,30.1-.4,45.2-.3,11.8-.9,23.7-3.9,35.3-2.5,9.7-6.3,18.8-11.8,27.2-10.7,16.3-31.5,22.6-49.8,15.1-12-4.9-22.8-11.9-32.5-20.5-10.4-9.3-19.5-19.7-26.4-31.8-4-7-7.8-14.2-9-22.3-2.2-16.2,3.1-29.5,16.2-39.2,11.7-8.6,25.1-13.3,39.5-15.1,16.9-2.2,34-2.3,51-2.3,7,0,14,0,21,.1,3.4,0,5.5-2,7.4-4.4,2.9-3.5,3.8-7.6,2.8-12.2-.7-3.4-3.2-16.6-3.2-16.6l14-11.3Z"/>
      <path class="cls-1" d="M880,1219.1s-12.2,2.4-16.8,3.3c-6.6,1.3-12.6,0-17.6-4.6-3.5-3.2-6.8-6.5-10-10-2.3-2.5-4.9-3.8-8.4-3.8-15.1,0-30.1,0-45.2-.4-11.8-.3-23.7-.9-35.3-3.9-9.7-2.5-18.8-6.3-27.2-11.8-16.3-10.7-22.6-31.5-15.1-49.8,4.9-12,11.9-22.8,20.5-32.5,9.3-10.4,19.7-19.5,31.8-26.4,7-4,14.2-7.8,22.3-9,16.2-2.2,29.5,3.1,39.2,16.2,8.6,11.7,13.3,25.1,15.1,39.5,2.2,16.9,2.3,34,2.3,51,0,7,0,14-.1,21,0,3.4,2,5.5,4.4,7.4,3.5,2.9,7.6,3.8,12.2,2.8,3.4-.7,16.6-3.2,16.6-3.2l11.3,14Z"/>
      <path class="cls-1" d="M1080.2,1034.4s2.4,12.2,3.3,16.8c1.3,6.6,0,12.6-4.6,17.6-3.2,3.5-6.5,6.8-10,10-2.5,2.3-3.8,4.9-3.8,8.4,0,15.1,0,30.1-.4,45.2-.3,11.8-.9,23.7-3.9,35.3-2.5,9.7-6.3,18.8-11.8,27.2-10.7,16.3-31.5,22.6-49.8,15.1-12-4.9-22.8-11.9-32.5-20.5-10.4-9.3-19.5-19.7-26.4-31.8-4-7-7.8-14.2-9-22.3-2.2-16.2,3.1-29.5,16.2-39.2,11.7-8.6,25.1-13.3,39.5-15.1,16.9-2.2,34-2.3,51-2.3,7,0,14,0,21,.1,3.4,0,5.5-2,7.4-4.4,2.9-3.5,3.8-7.6,2.8-12.2-.7-3.4-3.2-16.6-3.2-16.6l14-11.3Z"/>
      <path class="cls-1" d="M1333.6,1219.1s-12.2,2.4-16.8,3.3c-6.6,1.3-12.6,0-17.6-4.6-3.5-3.2-6.8-6.5-10-10-2.3-2.5-4.9-3.8-8.4-3.8-15.1,0-30.1,0-45.2-.4-11.8-.3-23.7-.9-35.3-3.9-9.7-2.5-18.8-6.3-27.2-11.8-16.3-10.7-22.6-31.5-15.1-49.8,4.9-12,11.9-22.8,20.5-32.5,9.3-10.4,19.7-19.5,31.8-26.4,7-4,14.2-7.8,22.3-9,16.2-2.2,29.5,3.1,39.2,16.2,8.6,11.7,13.3,25.1,15.1,39.5,2.2,16.9,2.3,34,2.3,51,0,7,0,14-.1,21,0,3.4,2,5.5,4.4,7.4,3.5,2.9,7.6,3.8,12.2,2.8,3.4-.7,16.6-3.2,16.6-3.2l11.3,14Z"/>
      <path class="cls-1" d="M1184.3,1479.4s-2.4-12.2-3.3-16.8c-1.3-6.6,0-12.6,4.6-17.6,3.2-3.5,6.5-6.8,10-10,2.5-2.3,3.8-4.9,3.8-8.4,0-15.1,0-30.1.4-45.2.3-11.8.9-23.7,3.9-35.3,2.5-9.7,6.3-18.8,11.8-27.2,10.7-16.3,31.5-22.6,49.8-15.1,12,4.9,22.8,11.9,32.5,20.5,10.4,9.3,19.5,19.7,26.4,31.8,4,7,7.8,14.2,9,22.3,2.2,16.2-3.1,29.5-16.2,39.2-11.7,8.6-25.1,13.3-39.5,15.1-16.9,2.2-34,2.3-51,2.3-7,0-14,0-21-.1-3.4,0-5.5,2-7.4,4.4-2.9,3.5-3.8,7.6-2.8,12.2.7,3.4,3.2,16.6,3.2,16.6l-14,11.3Z"/>
      <path class="cls-1" d="M935.7,1294.6s12.2-2.4,16.8-3.3c6.6-1.3,12.6,0,17.6,4.6,3.5,3.2,6.8,6.5,10,10,2.3,2.5,4.9,3.8,8.4,3.8,15.1,0,30.1,0,45.2.4,11.8.3,23.7.9,35.3,3.9,9.7,2.5,18.8,6.3,27.2,11.8,16.3,10.7,22.6,31.5,15.1,49.8-4.9,12-11.9,22.8-20.5,32.5-9.3,10.4-19.7,19.5-31.8,26.4-7,4-14.2,7.8-22.3,9-16.2,2.2-29.5-3.1-39.2-16.2-8.6-11.7-13.3-25.1-15.1-39.5-2.2-16.9-2.3-34-2.3-51,0-7,0-14,.1-21,0-3.4-2-5.5-4.4-7.4-3.5-2.9-7.6-3.8-12.2-2.8-3.4.7-16.6,3.2-16.6,3.2l-11.3-14Z"/>
      <path class="cls-1" d="M733.1,1479.4s-2.4-12.2-3.3-16.8c-1.3-6.6,0-12.6,4.6-17.6,3.2-3.5,6.5-6.8,10-10,2.5-2.3,3.8-4.9,3.8-8.4,0-15.1,0-30.1.4-45.2.3-11.8.9-23.7,3.9-35.3,2.5-9.7,6.3-18.8,11.8-27.2,10.7-16.3,31.5-22.6,49.8-15.1,12,4.9,22.8,11.9,32.5,20.5,10.4,9.3,19.5,19.7,26.4,31.8,4,7,7.8,14.2,9,22.3,2.2,16.2-3.1,29.5-16.2,39.2-11.7,8.6-25.1,13.3-39.5,15.1-16.9,2.2-34,2.3-51,2.3-7,0-14,0-21-.1-3.4,0-5.5,2-7.4,4.4-2.9,3.5-3.8,7.6-2.8,12.2.7,3.4,3.2,16.6,3.2,16.6l-14,11.3Z"/>
      <path class="cls-1" d="M482.1,1294.6s12.2-2.4,16.8-3.3c6.6-1.3,12.6,0,17.6,4.6,3.5,3.2,6.8,6.5,10,10,2.3,2.5,4.9,3.8,8.4,3.8,15.1,0,30.1,0,45.2.4,11.8.3,23.7.9,35.3,3.9,9.7,2.5,18.8,6.3,27.2,11.8,16.3,10.7,22.6,31.5,15.1,49.8-4.9,12-11.9,22.8-20.5,32.5-9.3,10.4-19.7,19.5-31.8,26.4-7,4-14.2,7.8-22.3,9-16.2,2.2-29.5-3.1-39.2-16.2-8.6-11.7-13.3-25.1-15.1-39.5-2.2-16.9-2.3-34-2.3-51,0-7,0-14,.1-21,0-3.4-2-5.5-4.4-7.4-3.5-2.9-7.6-3.8-12.2-2.8-3.4.7-16.6,3.2-16.6,3.2l-11.3-14Z"/>
      <path class="cls-1" d="M281.8,1479.4s-2.4-12.2-3.3-16.8c-1.3-6.6,0-12.6,4.6-17.6,3.2-3.5,6.5-6.8,10-10,2.5-2.3,3.8-4.9,3.8-8.4,0-15.1,0-30.1.4-45.2.3-11.8.9-23.7,3.9-35.3,2.5-9.7,6.3-18.8,11.8-27.2,10.7-16.3,31.5-22.6,49.8-15.1,12,4.9,22.8,11.9,32.5,20.5,10.4,9.3,19.5,19.7,26.4,31.8,4,7,7.8,14.2,9,22.3,2.2,16.2-3.1,29.5-16.2,39.2-11.7,8.6-25.1,13.3-39.5,15.1-16.9,2.2-34,2.3-51,2.3-7,0-14,0-21-.1-3.4,0-5.5,2-7.4,4.4-2.9,3.5-3.8,7.6-2.8,12.2.7,3.4,3.2,16.6,3.2,16.6l-14,11.3Z"/>
      <path class="cls-1" d="M28.4,1294.6s12.2-2.4,16.8-3.3c6.6-1.3,12.6,0,17.6,4.6,3.5,3.2,6.8,6.5,10,10,2.3,2.5,4.9,3.8,8.4,3.8,15.1,0,30.1,0,45.2.4,11.8.3,23.7.9,35.3,3.9,9.7,2.5,18.8,6.3,27.2,11.8,16.3,10.7,22.6,31.5,15.1,49.8-4.9,12-11.9,22.8-20.5,32.5-9.3,10.4-19.7,19.5-31.8,26.4-7,4-14.2,7.8-22.3,9-16.2,2.2-29.5-3.1-39.2-16.2-8.6-11.7-13.3-25.1-15.1-39.5-2.2-16.9-2.3-34-2.3-51,0-7,0-14,.1-21,0-3.4-2-5.5-4.4-7.4-3.5-2.9-7.6-3.8-12.2-2.8-3.4.7-16.6,3.2-16.6,3.2l-11.3-14Z"/>
    </g>
  </g>
</svg>